<svg width="408" height="301" viewBox="0 0 408 301" fill="none" xmlns="http://www.w3.org/2000/svg">
<path d="M15 221C15 154.726 68.7258 101 135 101H408V261C408 283.091 390.091 301 368 301H15V221Z" fill="#13AB7B" fill-opacity="0.3"/>
<path d="M88 120C88 53.7258 141.726 0 208 0H368C390.091 0 408 17.9086 408 40V261C408 283.091 390.091 301 368 301H88V120Z" fill="#13AB7B"/>
<circle cx="24" cy="66" r="24" fill="#13AB7B" fill-opacity="0.2"/>
<path fill-rule="evenodd" clip-rule="evenodd" d="M257 86C290.664 86 318 113.336 318 147C318 180.664 290.664 208 257 208C223.336 208 196 180.664 196 147C196 113.336 223.336 86 257 86ZM249.299 106.633C249.619 106.45 249.962 106.305 250.336 106.206C252.616 105.596 254.964 106.954 255.574 109.233L260.004 125.764C260.614 128.052 259.265 130.4 256.977 131.01C256.878 131.033 256.779 131.056 256.672 131.079L251.228 132.33C251.228 132.33 246.691 133.435 246.889 137.004C247.179 142.105 251.67 149.402 251.67 149.402C251.678 149.417 255.75 156.943 260.02 159.741C263.008 161.701 266.242 158.323 266.242 158.323L270.039 154.229C270.107 154.152 270.184 154.076 270.252 154C271.922 152.33 274.637 152.33 276.307 154L288.407 166.101C290.077 167.771 290.077 170.485 288.407 172.155C288.141 172.429 287.843 172.65 287.523 172.834C287.523 172.834 281.453 176.341 274.492 180.359C267.523 184.385 264.663 181.663 262.17 180.405C256.253 177.431 247.446 170.904 239.127 156.646C239.15 156.63 239.18 156.615 239.203 156.6C239.18 156.615 239.15 156.63 239.127 156.646C230.938 142.311 229.695 131.422 230.069 124.811C230.229 122.021 229.298 118.185 236.268 114.159C243.237 110.141 249.299 106.633 249.299 106.633Z" fill="white"/>
</svg>
