<svg width="408" height="287" viewBox="0 0 408 287" fill="none" xmlns="http://www.w3.org/2000/svg">
<path d="M15 207C15 140.726 68.7258 87 135 87H408V247C408 269.091 390.091 287 368 287H15V207Z" fill="#13AB7B" fill-opacity="0.3"/>
<path d="M88 120C88 53.7258 141.726 0 208 0H408V287H88V120Z" fill="#13AB7B"/>
<path d="M255.442 249C250.774 249 246.106 249 241.438 249C238.932 248.691 236.42 248.433 233.923 248.061C213.56 245.07 195.218 237.291 179.899 223.514C148.141 194.944 136.69 159.442 146.295 117.817C152.164 92.3731 166.643 72.1539 188.033 57.2113C212.899 39.8341 240.495 34.3357 270.158 40.3499C292.306 44.8425 311.03 55.8032 326.287 72.4892C339.976 87.4679 348.693 104.979 352.221 124.997C352.897 128.825 353.335 132.693 353.882 136.541C353.882 141.209 353.882 145.877 353.882 150.545C353.753 151.138 353.578 151.721 353.495 152.319C353.021 155.914 352.784 159.551 352.082 163.099C346.914 189.224 333.823 210.558 312.861 226.96C299.249 237.611 283.863 244.451 266.79 247.355C263.025 248.005 259.223 248.458 255.442 249ZM162.284 143.339C162.078 190.772 200.701 229.56 248.288 229.714C295.664 229.869 334.297 191.437 334.597 143.85C334.896 96.4479 296.33 57.6239 248.696 57.3712C201.284 57.1236 162.491 95.7155 162.284 143.339Z" fill="white"/>
<path d="M200.566 159.653C200.566 148.883 200.566 138.34 200.566 127.555C211.14 127.555 221.657 127.555 232.345 127.555C232.345 116.837 232.345 106.361 232.345 95.6992C243.099 95.6992 253.683 95.6992 264.432 95.6992C264.432 106.247 264.432 116.723 264.432 127.436C275.12 127.436 285.647 127.436 296.314 127.436C296.314 138.211 296.314 148.749 296.314 159.534C285.74 159.534 275.223 159.534 264.536 159.534C264.536 170.252 264.536 180.728 264.536 191.39C253.781 191.39 243.197 191.39 232.448 191.39C232.448 180.842 232.448 170.366 232.448 159.653C221.76 159.653 211.228 159.653 200.566 159.653Z" fill="white"/>
<circle cx="24" cy="52" r="24" fill="#13AB7B" fill-opacity="0.2"/>
</svg>
