<svg width="42" height="42" viewBox="0 0 42 42" fill="none" xmlns="http://www.w3.org/2000/svg">
<path d="M22.2328 41.9999H19.7715C19.6664 41.9763 19.5612 41.9399 19.455 41.9324C16.1698 41.7006 13.0959 40.7619 10.2924 39.0433C4.85168 35.7091 1.50207 30.904 0.327237 24.6163C0.180248 23.8289 0.107291 23.0275 0 22.2337C0 21.413 0 20.5934 0 19.7727C0.0257498 19.6278 0.0547182 19.483 0.0751035 19.3371C0.205998 18.4327 0.281101 17.5166 0.475298 16.6262C1.57181 11.584 4.16288 7.45267 8.26996 4.34156C13.3813 0.470904 19.1364 -0.813234 25.4118 0.495579C30.4351 1.54263 34.5186 4.17527 37.6429 8.23474C41.0161 12.6182 42.4195 17.611 41.8916 23.1048C41.4635 27.5569 39.7362 31.4876 36.7685 34.8422C33.5155 38.5198 29.4642 40.8124 24.6211 41.6738C23.8303 41.8144 23.0289 41.8937 22.2328 42.001V41.9999ZM36.6816 21.0332C36.7074 12.4144 29.6702 5.3532 21.0322 5.32746C12.4114 5.30171 5.34844 12.336 5.32269 20.9731C5.29694 29.592 12.3341 36.6531 20.9721 36.6789C29.5929 36.7046 36.6559 29.6703 36.6816 21.0332Z" fill="#13AB7B"/>
<path d="M17.5914 27.5107H18.7909V21.8495H17.6097V18.541H23.1781V27.4978H24.414V30.8224H17.5914V27.5107Z" fill="#13AB7B"/>
<path d="M23.164 13.7491C23.0867 15.1308 21.9205 16.2219 20.6073 16.1403C19.1513 16.0502 18.131 14.9141 18.2104 13.4702C18.2833 12.1463 19.4625 11.0971 20.8036 11.1647C22.1694 11.2334 23.2391 12.4049 23.164 13.748V13.7491Z" fill="#13AB7B"/>
</svg>
