<svg width="42" height="42" viewBox="0 0 42 42" fill="none" xmlns="http://www.w3.org/2000/svg">
<path d="M19.6875 0C20.5625 0 21.4375 0 22.3125 0C23.0267 0.0940625 23.7453 0.16625 24.4552 0.287656C28.4441 0.965781 31.9605 2.64906 34.9661 5.35391C38.5558 8.58484 40.8089 12.5814 41.6708 17.3436C41.8119 18.1191 41.8917 18.9066 41.9989 19.6886V22.3136C41.9748 22.4186 41.9464 22.5225 41.9289 22.6286C41.7605 23.7059 41.6609 24.7986 41.4148 25.8573C39.5445 33.9303 32.7622 40.3058 24.6137 41.6817C23.8503 41.8108 23.0792 41.8961 22.3114 42.0011H19.6864C19.5956 41.9781 19.5059 41.9431 19.4141 41.9355C15.1725 41.6041 11.3663 40.1319 8.04016 37.4861C3.85656 34.1567 1.26219 29.8528 0.316094 24.5777C0.181563 23.8284 0.103906 23.0683 0 22.3125C0 21.4375 0 20.5625 0 19.6875C0.0229687 19.5814 0.0590625 19.4775 0.0678125 19.3703C0.346719 15.7861 1.4525 12.4753 3.46062 9.49703C6.83047 4.50078 11.4756 1.40438 17.4245 0.319375C18.1737 0.182656 18.9328 0.105 19.6875 0ZM5.22047 18.5391C6.44219 18.5391 7.63 18.5533 8.81781 18.5336C9.55391 18.5216 10.2977 18.5117 11.0239 18.4034C13.2048 18.0786 15.05 17.0909 16.5813 15.4973C17.7658 14.2658 19.2336 13.6391 20.9398 13.6237C22.7095 13.6084 24.2222 14.2516 25.4516 15.5269C26.9533 17.0844 28.7558 18.1464 30.9006 18.3652C32.8234 18.5609 34.7736 18.4866 36.7117 18.5292C36.7314 18.5292 36.7522 18.5008 36.773 18.4844C35.7777 11.4559 29.482 4.99625 20.9792 5.00938C12.5114 5.0225 6.21797 11.4581 5.22156 18.538L5.22047 18.5391ZM35.8444 26.8636C32.7753 25.3487 29.435 25.5489 26.8505 28.105C24.3709 30.5583 24.2255 34.0845 25.3848 36.3387C29.0927 35.9253 34.8097 30.7475 35.8455 26.8636H35.8444ZM16.5955 36.3967C17.8544 33.8537 17.5098 30.2619 14.9362 27.8939C12.367 25.5292 8.96547 25.4177 6.11188 26.8975C8.15172 31.6652 11.6287 34.8283 16.5955 36.3967ZM20.988 25.9208C23.0103 25.9252 24.675 24.2791 24.6892 22.2622C24.7023 20.2191 23.0486 18.5456 21.0109 18.5402C18.9886 18.5347 17.3228 20.1819 17.3097 22.1988C17.2955 24.2397 18.9525 25.9164 20.9891 25.9208H20.988Z" fill="#13AB7B"/>
<path d="M22.2282 22.2184C22.2348 22.8834 21.6868 23.4467 21.0218 23.4598C20.3426 23.473 19.7662 22.902 19.7705 22.2217C19.7749 21.5578 20.3327 21.0022 20.9977 21.0011C21.6627 21.0011 22.2216 21.5534 22.2282 22.2184Z" fill="#13AB7B"/>
</svg>
