<svg width="48" height="48" viewBox="0 0 48 48" fill="none" xmlns="http://www.w3.org/2000/svg">
<g clip-path="url(#clip0_93_3451)">
<path d="M18.7509 0C19.2199 0 19.6889 0 20.1579 0C20.2426 0.0309036 20.3245 0.0725563 20.4119 0.0900235C22.5782 0.530736 24.0497 1.78703 24.8278 3.8522C25.2135 4.87336 25.1342 5.9429 25.1369 7.00302C25.1383 7.70037 25.1369 8.39772 25.1369 9.14478C25.3788 9.14478 25.5629 9.14478 25.747 9.14478C28.4966 9.14478 31.2474 9.14881 33.997 9.14209C34.7899 9.14075 35.5572 9.24286 36.2654 9.61102C38.0138 10.5193 38.8537 11.9798 38.855 13.9362C38.8564 16.7175 38.855 19.4975 38.855 22.2788C38.855 22.4615 38.855 22.6443 38.855 22.866C40.0914 22.866 41.2619 22.8445 42.431 22.87C45.4171 22.9345 47.8656 25.3181 47.9919 28.2634C48.1236 31.308 45.9399 33.9254 42.9404 34.2183C41.7631 34.3339 40.5685 34.2707 39.3818 34.2909C39.2179 34.2936 39.0539 34.307 38.8537 34.3164C38.8537 34.5502 38.8537 34.7356 38.8537 34.9211C38.8537 37.7024 38.8671 40.4824 38.8497 43.2637C38.8322 46.0464 36.8554 47.9893 34.0722 47.9933C31.4154 47.9973 28.76 47.9933 26.1031 47.9933H25.5965C25.5965 47.0111 25.6059 46.1055 25.5925 45.1999C25.5844 44.6705 25.5804 44.1357 25.5051 43.613C25.1087 40.8317 22.6857 38.5744 19.9617 38.4253C16.8654 38.2546 14.2288 40.0739 13.4977 42.9372C13.3298 43.5942 13.2854 44.2929 13.2585 44.9741C13.2196 45.9657 13.2491 46.96 13.2491 47.9315C13.1577 47.9637 13.1295 47.9839 13.1013 47.9839C10.1636 47.9839 7.22594 48.0215 4.2896 47.9664C3.02369 47.9436 1.96338 47.3497 1.11003 46.389C0.512011 45.7145 0.258021 44.8895 0 44.0578C0 40.9647 0 37.8717 0 34.7773C0.201579 34.7665 0.403158 34.7491 0.606081 34.7464C1.76046 34.7276 2.91752 34.7679 4.06652 34.6859C7.08349 34.4723 9.48094 31.8589 9.58576 28.7323C9.68789 25.6769 7.4208 22.8619 4.43743 22.5153C2.97396 22.3446 1.48093 22.432 0.00134386 22.4024C0.00134386 19.3403 0.00134386 16.2781 0.00134386 13.216C0.158576 12.7323 0.258021 12.219 0.481102 11.7676C1.35461 10.006 2.81001 9.14746 4.7707 9.14478C7.54846 9.14075 10.3276 9.14478 13.1053 9.14478C13.2894 9.14478 13.4735 9.14478 13.7074 9.14478C13.7074 8.94054 13.7074 8.78871 13.7074 8.63554C13.7074 7.69903 13.6966 6.76251 13.7101 5.826C13.7369 3.8213 14.5406 2.21028 16.1707 1.02385C16.9434 0.46221 17.8411 0.214982 18.7509 0Z" fill="#13AB7B"/>
</g>
<defs>
<clipPath id="clip0_93_3451">
<rect width="48" height="48" fill="white"/>
</clipPath>
</defs>
</svg>
