<svg width="39" height="48" viewBox="0 0 39 48" fill="none" xmlns="http://www.w3.org/2000/svg">
<path d="M11.4458 28.5471C11.835 29.2073 12.1047 29.8134 12.5022 30.3179C14.4426 32.774 16.9014 34.6712 19.4186 36.6658C20.9531 35.3481 22.5071 34.0763 23.9846 32.7225C24.8366 31.9414 25.6011 31.056 26.3405 30.1636C26.7061 29.723 26.9243 29.1629 27.244 28.5972C28.6298 28.4026 29.7112 28.9349 30.238 30.3249C30.5576 31.1686 30.6702 32.0957 30.8287 32.9922C30.8481 33.1061 30.6105 33.3299 30.4478 33.4008C29.2094 33.9373 28.4936 35.0243 28.5144 36.3878C28.5339 37.6151 29.3317 38.7396 30.4965 39.1816C32.088 39.7849 33.8574 39.0065 34.4801 37.4289C35.1153 35.8193 34.3536 34.0291 32.7287 33.4133C32.3729 33.2785 32.2992 33.1075 32.2506 32.7559C32.1186 31.7885 31.9087 30.8308 31.728 29.8634C33.35 30.6696 34.7511 31.801 35.9006 33.2354C38.0342 35.8972 38.9418 38.9439 38.7125 42.3396C38.5179 45.2195 36.8263 47.1182 33.7948 47.5727C31.9365 47.8521 30.0378 47.9536 28.1544 47.9689C22.2944 48.0175 16.433 47.9994 10.5716 47.98C8.54642 47.973 6.5157 47.9744 4.5239 47.5046C1.60779 46.818 0.0996992 44.9694 0.00796264 41.9712C-0.144932 36.9799 1.90524 33.1367 6.05285 30.3916C6.26829 30.2484 6.5018 30.1317 6.72836 30.0052C6.78535 29.9732 6.84929 29.9537 6.84373 29.9551C6.71446 30.9545 6.64497 31.9872 6.41841 32.9852C6.33223 33.3675 5.94721 33.758 5.59556 33.9874C4.55448 34.6671 3.73441 35.558 3.32855 36.6936C2.69473 38.4644 2.25273 40.3061 2.54462 42.2187C2.73921 43.496 3.42585 43.7226 4.60035 43.9867C4.92977 44.0603 5.29255 44.0131 5.63725 43.9908C6.13764 43.9589 6.44898 43.642 6.47678 43.1735C6.50597 42.7037 6.24188 42.3159 5.75679 42.2451C5.34953 42.1853 4.92282 42.1811 4.51557 42.2312C4.21812 42.2673 4.09441 42.2089 4.07356 41.9143C3.99294 40.7995 3.92762 39.6417 4.43912 38.6451C4.93394 37.6819 5.6303 36.7992 6.3503 35.9792C6.84234 35.419 7.42612 35.4969 8.02102 35.9722C8.11553 36.0473 8.21144 36.1251 8.29066 36.2155C9.71258 37.8487 10.516 39.6903 10.2102 41.9101C10.174 42.1728 10.1073 42.2645 9.821 42.2214C9.49853 42.1742 9.16355 42.1895 8.83414 42.2034C8.23507 42.2312 7.84449 42.612 7.857 43.1332C7.86951 43.6378 8.24341 44.0117 8.82719 43.9881C9.36788 43.9672 9.91273 43.8796 10.4423 43.7587C11.336 43.5544 11.6919 42.883 11.7628 42.0421C11.8809 40.6313 11.6488 39.2706 11.3152 37.889C11.0859 36.9424 10.8148 36.0765 10.2046 35.3398C9.85436 34.9173 9.46656 34.4891 9.01066 34.1986C8.12109 33.6315 7.65129 32.9366 7.93345 31.858C8.05993 31.3743 8.14611 30.8767 8.3129 30.4069C8.63676 29.4895 9.17606 28.7973 10.2547 28.7195C10.6994 28.6903 11.1359 28.5944 11.4458 28.5471ZM28.9328 44.0993C30.0072 44.0993 31.0817 44.1048 32.1547 44.0979C32.8524 44.0937 33.2305 43.7698 33.243 43.1916C33.2555 42.5981 32.8483 42.2173 32.1519 42.2159C30.0211 42.2075 27.8903 42.2075 25.7595 42.2159C25.0646 42.2187 24.6545 42.6037 24.6698 43.1958C24.6837 43.7698 25.0673 44.0951 25.7637 44.0993C26.8201 44.1034 27.8764 44.0993 28.9328 44.0993Z" fill="#13AB7B"/>
<path d="M8.78255 13.74C9.90979 14.2641 10.7118 13.9249 11.5527 13.2744C14.0352 11.3563 16.7873 10.0803 20.0161 10.2582C22.026 10.3694 23.8538 11.1158 25.5606 12.143C26.2097 12.5336 26.8185 12.9978 27.4162 13.4676C28.1709 14.0583 28.8367 14.1709 29.9584 13.7567C29.989 14.524 30.0793 15.2593 30.0349 15.9862C29.8403 19.1261 28.7964 21.9977 27.1632 24.665C26.1208 26.3649 24.8573 27.8716 23.1741 28.9836C20.6485 30.6515 18.0049 30.646 15.5029 28.9391C13.2151 27.3782 11.7028 25.1793 10.5255 22.7274C9.49837 20.5883 8.82008 18.3449 8.71444 15.9584C8.68386 15.244 8.75614 14.524 8.78255 13.74Z" fill="#13AB7B"/>
<path d="M9.28161 7.95224C9.28161 6.7555 9.27188 5.56014 9.28439 4.36339C9.2969 3.18333 10.1211 1.98102 11.2331 1.60157C13.5946 0.794006 16.0034 0.189379 18.5081 0.0281447C20.839 -0.12058 23.088 0.340883 25.3202 0.923272C26.0208 1.10674 26.7171 1.31802 27.401 1.55848C28.6269 1.98797 29.4511 3.16387 29.4553 4.46069C29.4609 6.81804 29.4581 9.17678 29.4553 11.5341C29.4553 11.6898 29.4525 11.8483 29.4192 11.9984C29.2732 12.6656 28.8576 12.8171 28.3336 12.382C26.1875 10.5959 23.7565 9.42281 20.9989 8.94744C18.7569 8.56104 16.6233 9.00443 14.5648 9.86342C13.0748 10.4847 11.6807 11.2812 10.4394 12.3334C10.2532 12.4918 9.90013 12.6336 9.71249 12.5585C9.5179 12.4821 9.4067 12.1429 9.30524 11.8997C9.24964 11.7649 9.28161 11.5925 9.28161 11.4355C9.28161 10.2762 9.28161 9.11424 9.28161 7.95224ZM18.3941 3.38765C17.8826 3.38765 17.4517 3.39043 17.0208 3.38626C16.7234 3.38348 16.5677 3.50997 16.5719 3.81853C16.5761 4.19938 16.5761 4.58023 16.5719 4.96107C16.5677 5.2335 16.6734 5.37806 16.9666 5.38084C17.4142 5.38501 18.048 5.23906 18.2579 5.46979C18.4997 5.73666 18.3413 6.34685 18.4108 6.79997C18.4344 6.95426 18.6054 7.18499 18.7374 7.20584C20.1941 7.44213 20.3289 7.32398 20.347 5.89234C20.347 5.85759 20.3512 5.82284 20.347 5.78809C20.3081 5.47118 20.4498 5.37806 20.7626 5.36972C22.2693 5.32802 22.2623 5.31968 22.1734 3.84077C22.1525 3.50858 22.0149 3.37514 21.6925 3.38209C21.2644 3.39043 20.8362 3.38487 20.3901 3.38487C20.372 3.2153 20.3512 3.09715 20.3484 2.97901C20.3108 1.53485 20.3122 1.54736 18.8639 1.57655C18.49 1.5835 18.3788 1.72944 18.3927 2.07137C18.4066 2.48696 18.3941 2.89978 18.3941 3.38765Z" fill="#13AB7B"/>
</svg>
