<svg width="661" height="144" viewBox="0 0 661 144" fill="none" xmlns="http://www.w3.org/2000/svg">
<rect x="5" y="5" width="135" height="133" rx="13.2037" fill="#13AB7B"/>
<path fill-rule="evenodd" clip-rule="evenodd" d="M45.5917 5.88755e-06L98.4083 1.15377e-05C108.22 -4.66047e-05 115.922 -9.22793e-05 121.933 0.808169C128.092 1.63615 132.97 3.36647 136.802 7.19823C140.634 11.03 142.364 15.9083 143.192 22.0667C144 28.0784 144 35.7798 144 45.5916L144 98.4085C144 108.22 144 115.922 143.192 121.933C142.364 128.092 140.634 132.97 136.802 136.802C132.97 140.634 128.092 142.364 121.933 143.192C115.922 144 108.22 144 98.4084 144L45.5916 144C35.7798 144 28.0784 144 22.0666 143.192C15.9082 142.364 11.03 140.634 7.1982 136.802C3.36644 132.97 1.63612 128.092 0.808143 121.933C-0.000116873 115.922 -6.97588e-05 108.22 -9.51716e-06 98.4083L-3.86699e-06 45.5917C-6.20094e-05 35.7799 -0.000107684 28.0784 0.808154 22.0667C1.63613 15.9082 3.36646 11.03 7.19822 7.19822C11.03 3.36646 15.9082 1.63613 22.0666 0.808158C28.0784 -0.000101468 35.7799 -5.43541e-05 45.5917 5.88755e-06ZM22.9483 7.36584C17.5236 8.09517 14.2744 9.47945 11.8769 11.8769C9.47945 14.2744 8.09516 17.5236 7.36583 22.9483C6.6237 28.4682 6.61668 35.7248 6.61668 45.8442L6.61667 98.1559C6.61667 108.275 6.6237 115.532 7.36582 121.052C8.09515 126.476 9.47944 129.726 11.8769 132.123C14.2744 134.521 17.5236 135.905 22.9483 136.634C28.4682 137.376 35.7248 137.383 45.8442 137.383L98.1559 137.383C108.275 137.383 115.532 137.376 121.052 136.634C126.476 135.905 129.726 134.521 132.123 132.123C134.521 129.726 135.905 126.476 136.634 121.052C137.376 115.532 137.383 108.275 137.383 98.1559L137.383 45.8442C137.383 35.7248 137.376 28.4682 136.634 22.9483C135.905 17.5236 134.521 14.2744 132.123 11.8769C129.726 9.47946 126.476 8.09518 121.052 7.36585C115.532 6.62372 108.275 6.61669 98.1558 6.61669L45.8441 6.61669C35.7248 6.61669 28.4682 6.62371 22.9483 7.36584Z" fill="white"/>
<path fill-rule="evenodd" clip-rule="evenodd" d="M72.9971 112.974C45.1654 112.974 20.8364 94.7231 21.3772 75.2556C20.6868 61.0181 28.6425 45.9765 46.5463 37.9769C53.2364 34.977 64.6405 32.4771 75.7113 32.358C78.1503 32.2855 79.7306 31.9759 81.88 31.5549C83.2554 31.2856 84.8639 30.9705 87.0795 30.6427C90.7343 30.102 95.7317 29.5612 100.091 31.3105C105.195 33.8873 110.162 37.6727 110.162 39.5482C110.162 41.4238 106.817 44.7026 104.654 44.973C100.913 45.4406 96.142 44.6915 90.2473 43.7661C85.6967 43.0517 80.4767 42.2322 74.5447 41.7862C49.4747 41.4291 31.0803 58.3346 31.6517 74.7149C32.2231 95.6426 58.4027 104.727 74.5447 104.727C119.518 104.989 118.079 64.9118 107.534 62.9965C104.087 62.3705 101.354 68.341 98.3407 74.9213C94.8471 82.5516 90.9781 91.0017 85.1871 90.9377C79.7508 90.8817 75.4691 81.8315 71.9 74.2875C69.4044 69.0124 67.2571 64.4738 65.3071 64.2615C61.8378 63.8837 59.1865 72.0737 56.8645 79.2467C55.3004 84.0783 53.8857 88.4484 52.471 89.4278C49.2265 92.6724 40.7245 85.6425 41.9262 82.9386C43.101 80.2954 44.1929 81.2983 45.3804 82.389C46.3792 83.3064 47.4457 84.2859 48.6857 83.209C49.1484 82.8018 49.8086 80.8581 50.7159 78.1866C53.3097 70.5492 57.9235 56.9639 65.7197 56.329C71.33 55.8963 75.7985 66.0089 79.3515 74.0496C81.6637 79.2823 83.5881 83.6375 85.1871 83.6375C87.0243 83.6018 88.8509 79.5714 91.08 74.6528C94.8017 66.4407 99.6455 55.7528 107.534 57.0481C127.744 60.3666 129.327 112.997 72.9971 112.974ZM98.939 35.6436C98.939 36.5643 97.5273 36.6021 94.6196 36.4718C92.4388 36.4067 91.0642 35.7551 91.4053 34.6339C91.7465 33.5126 93.6638 33.3937 95.7454 33.8825C96.7464 34.1176 98.939 34.7229 98.939 35.6436Z" fill="white"/>
<path d="M218.005 50.7212C214.266 55.3556 210.924 57.3978 204.798 57.3978C196.285 57.3978 189.073 51.1925 189.073 42.7879C189.073 34.6189 195.967 28.335 204.878 28.335C210.208 28.335 214.345 30.9271 217.289 34.9331L226.598 25.6644C221.188 18.1238 213.073 15.4531 203.844 15.4531C187.454 15.4531 174.514 27.2353 174.514 43.1806C174.514 59.2044 187.534 70.5939 203.844 70.5939C213.629 70.5939 221.506 66.9021 227.473 59.5186L218.005 50.7212Z" fill="#13AB7B"/>
<path d="M234.515 69.4207H248.242L248.685 38.7084L258.604 54.9074H266.22L276.139 38.7203L276.582 69.4207H290.326L289.44 17.0291H276.092L262.379 38.1767L248.685 17.0291H235.4L234.515 69.4207Z" fill="#13AB7B"/>
<path d="M298.414 51.1002H311.541H324.669V40.2882H311.541H298.414V51.1002Z" fill="#13AB7B"/>
<path d="M347.776 47.8937H351.117C355.016 47.8937 358.29 51.7891 360.12 55.4808L367.439 69.4207H383.509L373.325 49.7788C370.859 45.3016 368.154 42.5524 363.38 41.06C367.199 39.489 369.661 37.2111 372.207 32.1841L380.481 17.0291H364.967L358.364 29.4349C356.454 33.4408 354.22 35.1689 350.163 35.1689H347.776V17.0291H333.694V69.4207H347.776V47.8937Z" fill="#13AB7B"/>
<path d="M397.809 31.0913C397.809 52.2413 395.477 58.0312 387.546 58.0312V69.4138C387.546 69.4138 389.137 69.3999 390.012 69.3999C401.548 69.3999 409.504 61.3467 409.504 42.2452H415.789V69.4207H429.235V31.0913H397.809Z" fill="#13AB7B"/>
<path d="M476.873 69.4207V31.0913H465.257L451.016 50.6637V31.0913H438.207V69.4207H449.027L464.064 49.8462V69.4207H476.873Z" fill="#13AB7B"/>
<path d="M511.003 31.0913V44.5509H499.307V31.0913H485.862V69.4207H499.307V55.3627H511.003V69.4207H524.448V31.0913H511.003Z" fill="#13AB7B"/>
<path d="M572.105 69.4207V31.0913H560.489L546.248 50.6637V31.0913H533.439V69.4207H544.259L559.296 49.7607V69.4207H572.105Z" fill="#13AB7B"/>
<path d="M594.301 54.9352H596.687C599.552 54.9352 601.294 57.6037 602.488 59.7245L607.341 69.4207H621.669L615.304 56.6633C612.838 52.2646 610.61 50.0652 606.871 48.887C609.974 47.8659 612.122 46.3297 614.27 42.3237L619.998 31.0913H606.314L601.859 40.1244C600.506 42.8736 599.392 43.7814 596.608 43.7814H594.301V31.0913H581.094V69.4207H594.301V54.9352Z" fill="#13AB7B"/>
<path d="M660.488 69.4207V46.7988C660.488 36.3519 653.407 30.8536 643.064 30.8536C634.154 30.8536 627.333 33.5175 624.543 36.7664L630.742 43.2642C632.97 41.6932 636.381 40.515 641.155 40.515C643.86 40.515 647.361 41.379 647.361 45.2279V45.9348C645.531 45.6992 644.496 45.6206 642.03 45.6206C632.403 45.6206 624.129 50.255 624.129 59.3665C624.129 68.321 630.892 70.6775 635.824 70.6775C640.916 70.6775 643.939 69.4992 647.361 65.9646V69.4207H660.488ZM647.361 55.5962C646.949 60.6627 643.535 61.9879 640.75 61.9879C637.806 61.9879 636.322 60.2306 636.322 57.4028C636.322 54.8107 639.245 52.7685 643.701 52.7685C645.451 52.7685 646.645 52.8471 647.361 53.0827V55.5962Z" fill="#13AB7B"/>
<path d="M199.892 115.919L204.401 120.936C202.178 123.666 198.114 125.889 192.78 125.889C183.89 125.889 177.286 119.348 177.286 110.014C177.286 100.87 183.7 94.012 192.907 94.012C197.797 94.012 201.797 95.9805 204.274 99.0285L199.638 103.918C198.432 102.203 196.146 100.616 193.034 100.616C188.145 100.616 184.906 104.553 184.906 109.887C184.906 115.284 188.272 119.285 192.971 119.285C196.209 119.285 198.686 117.507 199.892 115.919ZM216.427 113.125V125H209.061V94.8375H216.427V106.458H219.983C222.269 106.458 223.349 105.251 224.619 103.029L229.318 94.8375H237.001L231.54 104.489C230.08 107.029 228.492 108.744 226.27 109.506C228.619 110.204 230.08 111.792 231.794 114.586L238.081 125H229.635L224.301 116.046C223.285 114.332 222.333 113.125 219.856 113.125H216.427ZM238.663 109.887C238.663 101.06 245.203 93.8215 254.665 93.8215C264.126 93.8215 270.667 101.06 270.667 109.887C270.667 118.65 264.126 126.016 254.665 126.016C245.203 126.016 238.663 118.65 238.663 109.887ZM254.665 119.539C260.443 119.539 263.11 114.268 263.11 109.887C263.11 105.505 260.443 100.298 254.665 100.298C248.886 100.298 246.219 105.505 246.219 109.887C246.219 114.268 248.886 119.539 254.665 119.539ZM276.329 137.7V94.8375H283.568L283.759 98.203C285.346 96.298 288.204 93.8215 293.284 93.8215C302.237 93.8215 306.619 101.886 306.619 109.633C306.619 119.031 300.332 126.016 290.934 126.016C287.886 126.016 285.473 125.191 283.759 124.428V137.7H276.329ZM283.759 109.887V117.697C285.219 118.904 287.823 119.539 290.109 119.539C296.268 119.539 299.062 114.776 299.062 109.506C299.062 104.68 296.713 100.298 291.633 100.298C286.743 100.298 283.759 104.489 283.759 109.887ZM337.371 125H330.386L330.195 122.206C328.608 124.174 324.988 125.953 321.115 125.953C316.162 125.953 310.701 122.968 310.701 116.046C310.701 109.188 315.781 105.315 323.909 105.315C324.925 105.315 326.512 105.378 327.846 105.442L330.195 105.569V104.87C330.195 101.822 327.782 100.044 323.464 100.044C319.654 100.044 317.305 101.378 315.336 102.648L311.907 97.568C314.13 95.8535 318.194 93.8215 324.099 93.8215C332.989 93.8215 337.371 98.457 337.371 104.743V125ZM330.195 114.459V111.22L327.973 111.093C326.766 111.03 325.369 110.966 324.544 110.966C321.178 110.966 317.876 112.236 317.876 115.792C317.876 118.523 319.845 120.047 322.956 120.047C326.957 120.047 330.195 117.507 330.195 114.459ZM369.235 94.8375V125H361.869V114.903H357.487C355.455 114.903 354.439 115.666 353.233 117.888L349.613 125H341.739L346.375 116.745C347.708 114.459 348.661 113.57 350.375 112.871C346.819 112.046 343.581 108.807 343.581 104.172C343.581 98.076 348.534 94.8375 354.439 94.8375H369.235ZM355.709 109.125H361.869V100.616H355.963C352.852 100.616 351.01 102.013 351.01 104.87C351.01 107.601 352.725 109.125 355.709 109.125ZM387.424 94.8375H414.92V125H407.427V101.505H394.917V125H387.424V94.8375ZM420.56 109.887C420.56 101.06 427.101 93.8215 436.562 93.8215C446.024 93.8215 452.564 101.06 452.564 109.887C452.564 118.65 446.024 126.016 436.562 126.016C427.101 126.016 420.56 118.65 420.56 109.887ZM436.562 119.539C442.341 119.539 445.008 114.268 445.008 109.887C445.008 105.505 442.341 100.298 436.562 100.298C430.784 100.298 428.117 105.505 428.117 109.887C428.117 114.268 430.784 119.539 436.562 119.539ZM464.513 125H457.655L459.116 94.8375H465.974L474.419 109.823L482.992 94.8375H489.786L491.247 125H484.135L483.309 105.442L476.261 117.824H472.387L465.402 105.505L464.513 125ZM496.324 109.887C496.324 101.06 502.864 93.8215 512.326 93.8215C521.787 93.8215 528.328 101.06 528.328 109.887C528.328 118.65 521.787 126.016 512.326 126.016C502.864 126.016 496.324 118.65 496.324 109.887ZM512.326 119.539C518.104 119.539 520.771 114.268 520.771 109.887C520.771 105.505 518.104 100.298 512.326 100.298C506.547 100.298 503.88 105.505 503.88 109.887C503.88 114.268 506.547 119.539 512.326 119.539ZM578.44 118.332H581.933V132.874H575.265V125H533.99V94.8375H541.483V118.332H552.469V94.8375H559.962V118.332H570.947V94.8375H578.44V118.332ZM594.062 110.141V119.221H600.094C603.65 119.221 605.301 117.507 605.301 114.776C605.301 111.665 603.587 110.141 600.094 110.141H594.062ZM586.569 94.8375H594.062V104.362H601.301C608.159 104.362 612.604 108.109 612.604 114.713C612.604 121.38 607.524 125 601.174 125H586.569V94.8375Z" fill="#13AB7B"/>
</svg>
