<svg width="408" height="301" viewBox="0 0 408 301" fill="none" xmlns="http://www.w3.org/2000/svg">
<path d="M15 221C15 154.726 68.7258 101 135 101H408V261C408 283.091 390.091 301 368 301H15V221Z" fill="#FF7272"/>
<path d="M88 120C88 53.7258 141.726 0 208 0H408V301H88V120Z" fill="#F6F8F7"/>
<path d="M264.442 253C259.774 253 255.106 253 250.438 253C247.932 252.691 245.42 252.433 242.923 252.061C222.56 249.07 204.218 241.291 188.899 227.514C157.141 198.944 145.69 163.442 155.295 121.817C161.164 96.3731 175.643 76.1539 197.033 61.2113C221.899 43.8341 249.495 38.3357 279.158 44.3499C301.306 48.8425 320.03 59.8032 335.287 76.4892C348.976 91.4679 357.693 108.979 361.221 128.997C361.897 132.825 362.335 136.693 362.882 140.541C362.882 145.209 362.882 149.877 362.882 154.545C362.753 155.138 362.578 155.721 362.495 156.319C362.021 159.914 361.784 163.551 361.082 167.099C355.914 193.224 342.823 214.558 321.861 230.96C308.249 241.611 292.863 248.451 275.79 251.355C272.025 252.005 268.223 252.458 264.442 253ZM171.284 147.339C171.078 194.772 209.701 233.56 257.288 233.714C304.664 233.869 343.297 195.437 343.597 147.85C343.896 100.448 305.33 61.6239 257.696 61.3712C210.284 61.1236 171.491 99.7155 171.284 147.339Z" fill="#FF7272"/>
<path d="M209.566 163.653C209.566 152.883 209.566 142.341 209.566 131.555C220.14 131.555 230.657 131.555 241.345 131.555C241.345 120.837 241.345 110.361 241.345 99.6996C252.099 99.6996 262.683 99.6996 273.432 99.6996C273.432 110.248 273.432 120.723 273.432 131.437C284.12 131.437 294.647 131.437 305.314 131.437C305.314 142.212 305.314 152.749 305.314 163.535C294.74 163.535 284.223 163.535 273.536 163.535C273.536 174.253 273.536 184.729 273.536 195.39C262.781 195.39 252.197 195.39 241.448 195.39C241.448 184.842 241.448 174.366 241.448 163.653C230.76 163.653 220.228 163.653 209.566 163.653Z" fill="#FF7272"/>
<circle cx="24" cy="66" r="24" fill="#F4F4F4"/>
</svg>
