<svg width="320" height="301" viewBox="0 0 320 301" fill="none" xmlns="http://www.w3.org/2000/svg">
<path d="M0 181C0 247.274 53.7258 301 120 301H320V40C320 17.9086 302.091 0 280 0H0V181Z" fill="#13AB7B"/>
<circle cx="161.619" cy="152" r="105" fill="#DBF0E9"/>
<path d="M156.066 157.475V156.174C156.066 155.377 156.178 154.674 156.4 154.064C156.623 153.443 156.98 152.857 157.472 152.307C157.965 151.744 158.615 151.17 159.424 150.584C160.15 150.068 160.73 149.605 161.164 149.195C161.609 148.785 161.931 148.381 162.131 147.982C162.342 147.572 162.447 147.109 162.447 146.594C162.447 145.832 162.166 145.252 161.603 144.854C161.041 144.455 160.256 144.256 159.248 144.256C158.24 144.256 157.238 144.414 156.242 144.73C155.258 145.047 154.256 145.463 153.236 145.979L151.32 142.129C152.492 141.473 153.763 140.945 155.135 140.547C156.506 140.137 158.006 139.932 159.635 139.932C162.142 139.932 164.082 140.535 165.453 141.742C166.836 142.938 167.527 144.461 167.527 146.312C167.527 147.297 167.369 148.152 167.053 148.879C166.748 149.594 166.279 150.262 165.646 150.883C165.025 151.492 164.246 152.137 163.308 152.816C162.605 153.332 162.066 153.766 161.691 154.117C161.316 154.469 161.058 154.82 160.918 155.172C160.789 155.512 160.724 155.928 160.724 156.42V157.475H156.066ZM155.504 163.486C155.504 162.385 155.803 161.611 156.4 161.166C157.01 160.721 157.742 160.498 158.597 160.498C159.429 160.498 160.144 160.721 160.742 161.166C161.351 161.611 161.656 162.385 161.656 163.486C161.656 164.541 161.351 165.303 160.742 165.771C160.144 166.24 159.429 166.475 158.597 166.475C157.742 166.475 157.01 166.24 156.4 165.771C155.803 165.303 155.504 164.541 155.504 163.486Z" fill="white"/>
<circle cx="161.136" cy="152" r="77" fill="#13AB7B"/>
<path d="M147.954 169.003V164.884C147.954 162.36 148.306 160.134 149.011 158.204C149.716 156.237 150.848 154.382 152.407 152.638C153.965 150.856 156.025 149.038 158.585 147.183C160.886 145.55 162.723 144.084 164.096 142.785C165.506 141.486 166.527 140.206 167.158 138.944C167.826 137.646 168.16 136.18 168.16 134.547C168.16 132.135 167.269 130.298 165.488 129.036C163.706 127.774 161.22 127.144 158.029 127.144C154.837 127.144 151.665 127.645 148.51 128.646C145.393 129.648 142.22 130.966 138.992 132.599L132.924 120.408C136.635 118.33 140.662 116.66 145.003 115.398C149.345 114.1 154.095 113.45 159.253 113.45C167.195 113.45 173.336 115.361 177.678 119.184C182.057 122.969 184.247 127.793 184.247 133.656C184.247 136.773 183.746 139.482 182.744 141.783C181.779 144.047 180.294 146.162 178.29 148.129C176.324 150.059 173.856 152.1 170.887 154.252C168.661 155.885 166.954 157.258 165.766 158.371C164.579 159.484 163.762 160.598 163.317 161.711C162.909 162.787 162.705 164.104 162.705 165.663V169.003H147.954ZM146.172 188.04C146.172 184.552 147.119 182.103 149.011 180.692C150.941 179.282 153.26 178.577 155.969 178.577C158.604 178.577 160.868 179.282 162.76 180.692C164.69 182.103 165.655 184.552 165.655 188.04C165.655 191.38 164.69 193.792 162.76 195.276C160.868 196.761 158.604 197.503 155.969 197.503C153.26 197.503 150.941 196.761 149.011 195.276C147.119 193.792 146.172 191.38 146.172 188.04Z" fill="white"/>
</svg>
