<svg width="393" height="501" viewBox="0 0 393 501" fill="none" xmlns="http://www.w3.org/2000/svg">
<path d="M0 288C0 221.726 53.7258 168 120 168H393V461C393 483.091 375.091 501 353 501H0V288Z" fill="#DBF0E9"/>
<path d="M87 120C87 53.7258 140.726 0 207 0H393V501H87V120Z" fill="#28926E"/>
<circle cx="39" cy="66" r="24" fill="#28926E"/>
<circle cx="240" cy="150" r="105" fill="#13AB7B"/>
<g clip-path="url(#clip0_474_251)">
<path d="M272.888 100C276.129 100.592 278.451 102.597 280.626 104.905C282.612 107.014 284.669 109.051 286.763 111.051C290.952 115.055 290.99 121.894 286.811 125.903C285.569 127.092 284.375 128.334 283.233 129.481C275.646 121.894 268.106 114.354 260.543 106.786C263.292 104.061 265.76 100.687 270.153 100.005H272.888V100Z" fill="white"/>
<path d="M225.106 187.224C217.704 179.822 210.188 172.306 202.743 164.866C220.959 146.65 239.218 128.395 257.425 110.184C264.832 117.591 272.353 125.111 279.783 132.547C261.572 150.758 243.318 169.012 225.106 187.224Z" fill="white"/>
<path d="M200.34 168.951C207.273 175.884 214.121 182.731 221.044 189.655C210.789 193.072 200.501 196.498 190 200C193.483 189.532 196.905 179.263 200.34 168.951Z" fill="white"/>
</g>
<defs>
<clipPath id="clip0_474_251">
<rect width="99.9289" height="100" fill="white" transform="translate(190 100)"/>
</clipPath>
</defs>
</svg>
