<svg width="48" height="38" viewBox="0 0 48 38" fill="none" xmlns="http://www.w3.org/2000/svg">
<path d="M0 18.7191C0 18.1365 0 17.554 0 16.9715C0.0318854 16.8403 0.0723553 16.7103 0.0944298 16.5778C0.261215 15.5673 0.553089 14.5985 1.00316 13.7364C1.4422 14.4599 1.81256 15.2276 2.32518 15.885C4.11321 18.1758 6.44085 19.5113 9.38656 19.6327C10.2585 19.6695 10.9183 19.0392 10.9477 18.2236C10.9772 17.386 10.3468 16.7409 9.46137 16.6833C6.9179 16.5178 5.12005 15.2178 4.00897 12.9748C3.27806 11.4995 3.36145 10.0242 4.24198 8.59669C5.9037 5.8987 8.28652 4.15972 11.2997 3.27551C11.8577 3.11118 12.4843 3.00326 13.0509 3.08052C14.9027 3.33315 15.9942 4.56319 16.145 6.41867C16.2088 7.19496 16.7521 7.7456 17.4977 7.78852C18.2814 7.83389 18.9178 7.36665 19.0589 6.59895C19.1165 6.28745 19.1177 5.95634 19.0895 5.63994C18.9497 4.09717 18.2274 2.85242 17.0869 1.83209C16.9667 1.72417 16.8453 1.61625 16.6859 1.47276C21.0492 -0.0233961 25.4016 -0.504129 29.8987 0.613085C29.3995 1.0791 28.9041 1.47031 28.4945 1.93633C26.2036 4.54848 25.2667 7.61806 25.4789 11.0617C25.5365 12.0023 26.1669 12.6241 27.0253 12.5922C27.896 12.5603 28.4479 11.8674 28.4368 10.8949C28.4283 10.1468 28.4197 9.38769 28.5264 8.65065C28.9237 5.90728 30.2335 3.8004 32.8554 2.64516C33.5581 2.33612 34.2559 2.28339 34.9353 2.64884C35.5142 2.96034 36.0771 3.3074 36.6167 3.68266C37.3881 4.21981 37.6726 5.1543 37.3733 6.04463C37.0864 6.90186 36.6326 7.66711 35.9557 8.2668C35.6687 8.52188 35.3032 8.72301 34.9402 8.84932C34.2032 9.1044 33.7482 9.74457 33.8512 10.5C33.9518 11.2383 34.5907 11.773 35.3682 11.7582C36.0881 11.7448 36.7013 11.432 37.2666 11.0237C38.4771 10.1493 39.3441 8.99894 39.9315 7.63277C40.0627 7.32618 40.178 7.01346 40.362 6.5499C40.5766 6.82215 40.7274 7.03553 40.8991 7.23053C42.3119 8.84319 43.7516 10.435 45.1362 12.0722C45.9762 13.0643 46.5428 14.222 46.8605 15.4901C46.9451 15.8285 47.015 16.1707 47.0922 16.5116V18.0752C47.064 18.1758 47.0236 18.2764 47.0089 18.3794C46.8384 19.553 46.392 20.6162 45.7383 21.5973C45.5532 21.8745 45.3533 22.1418 45.1644 22.4092C46.5625 24.2046 46.6115 26.1263 45.7457 28.1044C44.7021 30.4872 42.8539 32.1121 40.5705 33.2379C39.468 33.7812 38.2784 34.1455 37.0778 34.609C37.1747 35.0113 37.2924 35.4981 37.4064 35.9862C37.6836 37.1721 37.0508 37.9827 35.8281 37.995C34.9083 38.0048 33.9898 37.9889 33.07 37.9999C32.4936 38.0073 32.0448 37.7914 31.6609 37.3597C30.4714 36.0193 29.2475 34.7071 28.0726 33.3545C27.652 32.87 27.2436 32.4837 26.5446 32.5769C26.3385 32.6039 26.119 32.5426 25.9069 32.5119C24.6413 32.3292 23.4492 31.965 22.5368 31.006C22.3259 30.7852 22.1334 30.7668 21.8537 30.7914C20.6985 30.8944 19.5371 31.0538 18.3831 31.0219C16.8526 30.9802 15.4632 30.4369 14.2491 29.4227C16.248 27.7156 17.2831 25.5131 17.7062 22.9917C17.8901 21.8941 17.9147 20.7916 17.5431 19.721C17.2745 18.9509 16.4823 18.5498 15.7391 18.7706C14.953 19.0036 14.4907 19.7664 14.7249 20.5672C14.9493 21.3361 14.8708 22.0842 14.7188 22.8372C14.2049 25.3892 12.9491 27.2791 10.2291 27.8775C7.61447 28.4527 5.35184 27.9082 3.63371 25.7621C2.84148 24.7724 2.12896 23.7165 1.42994 22.6557C1.09637 22.1492 0.825341 21.5851 0.625444 21.0111C0.365455 20.2643 0.203576 19.4843 0 18.7178L0 18.7191ZM30.5805 19.9013C29.7319 19.7909 29.0083 19.6376 28.2811 19.6131C26.1509 19.542 24.3666 20.2299 23.1978 22.1222C22.7061 22.9181 22.8876 23.8036 23.6087 24.2536C24.3371 24.7098 25.2054 24.4891 25.7008 23.6895C26.1239 23.0077 26.7396 22.6287 27.5122 22.5919C29.8619 22.4779 31.775 23.3964 33.2736 25.1808C33.72 25.7118 33.9064 26.3458 33.7997 27.0681C33.6869 27.8309 34.2486 28.5422 34.9954 28.6698C35.7913 28.8059 36.5897 28.3411 36.6804 27.5574C36.7614 26.856 36.7749 26.1079 36.6179 25.426C36.2255 23.7263 35.0592 22.5502 33.7114 21.5348C33.5434 21.4085 33.3754 21.2834 33.2111 21.1595C33.628 19.9687 33.8512 18.7841 33.7556 17.5589C33.6084 15.6703 32.8284 14.1411 31.1299 13.1943C30.8307 13.0275 30.426 12.9527 30.0851 12.9834C29.4756 13.0398 29.0047 13.5389 28.8894 14.1018C28.7606 14.7346 28.9912 15.3441 29.5712 15.6801C30.4554 16.1915 30.8049 16.9874 30.7951 17.944C30.789 18.5928 30.6578 19.2415 30.5805 19.9025V19.9013ZM19.0196 14.7849C19.5237 15.2546 19.9566 15.7378 20.4667 16.118C21.6465 16.996 22.9489 17.2707 24.3604 16.7189C25.2029 16.389 25.5929 15.5869 25.3047 14.8033C25.0141 14.0098 24.2292 13.6922 23.3475 13.9203C23.0421 13.9988 22.6521 13.9375 22.3566 13.8112C22.0782 13.6922 21.8721 13.4028 21.6342 13.1894C21.4159 12.9944 21.4233 12.8141 21.5815 12.5566C22.1616 11.6135 22.3296 10.5932 22.0316 9.51523C21.8022 8.68744 21.064 8.20916 20.3012 8.37472C19.4587 8.55867 18.9546 9.29694 19.1521 10.1689C19.2698 10.6925 19.1006 11.0739 18.7498 11.4026C17.9441 12.158 16.9741 12.5284 15.874 12.5358C15.4558 12.5382 15.0732 12.4364 14.7629 12.0918C14.1694 11.432 13.3085 11.3756 12.6732 11.9152C12.0429 12.4499 11.9742 13.3219 12.5248 14.0135C13.3244 15.0191 14.4171 15.4287 15.6606 15.4925C16.8612 15.5551 17.9907 15.2509 19.0196 14.7837V14.7849ZM37.9387 19.022C38.6806 18.8662 39.6519 18.7129 40.5913 18.4505C41.3014 18.2518 41.6533 17.478 41.4853 16.7471C41.3296 16.064 40.6404 15.5183 39.956 15.6213C39.0645 15.7562 38.1754 15.9316 37.2985 16.1425C36.5725 16.3179 36.1408 17.0316 36.2426 17.7588C36.3444 18.4812 36.9674 19.0171 37.9375 19.0208L37.9387 19.022Z" fill="#13AB7B"/>
</svg>
