<svg width="52" height="52" viewBox="0 0 52 52" fill="none" xmlns="http://www.w3.org/2000/svg">
<g clip-path="url(#clip0_0_7807)">
<path d="M51.9998 39.3295C51.7461 40.4193 51.3014 41.3995 50.3901 42.1135C49.792 42.5801 49.1375 42.9089 48.3765 42.9872C48.0195 43.0217 47.8316 43.1469 47.7126 43.5227C46.9923 45.8338 44.8128 47.4184 42.4171 47.4215C40.0277 47.4215 37.8512 45.8307 37.1059 43.529C37.059 43.3881 37.0089 43.2471 36.9556 43.0968H15.545C14.6806 45.8025 12.8612 47.4184 9.98639 47.384C7.20554 47.3495 5.44246 45.7555 4.59693 43.0812C3.61361 43.0812 2.6209 43.0812 1.62505 43.0812C0.582233 43.0812 0.0999683 42.5864 0.0999683 41.5185C0.0999683 34.3409 0.121889 27.1602 0.087442 19.9826C0.0780472 17.6934 1.74092 15.9679 4.08648 15.9804C11.7871 16.0211 19.4908 15.9961 27.1913 15.9961C27.4074 15.9961 27.6204 15.9961 27.9022 15.9961C27.9022 15.2194 27.9022 14.4992 27.9022 13.7789C27.9022 12.5075 28.3375 12.0659 29.587 12.0659C31.2593 12.0659 32.9315 12.0659 34.6038 12.0659C35.5683 12.0659 36.0756 12.5701 36.0819 13.5221C36.085 14.2831 36.0913 15.0409 36.0788 15.8019C36.0756 16.0462 36.1163 16.1996 36.3857 16.2842C37.2249 16.5441 37.9076 17.0514 38.5277 17.6715C42.3952 21.5452 46.269 25.4065 50.1459 29.2709C51.0822 30.2041 51.7023 31.297 51.9089 32.6123C51.9215 32.6937 51.9653 32.7688 51.9966 32.844V39.3326L51.9998 39.3295ZM13.2213 28.2218C13.9353 28.2218 14.5585 28.2374 15.1817 28.2186C15.9959 28.1936 16.497 27.6863 16.5095 26.8721C16.522 26.1643 16.5189 25.4535 16.5095 24.7426C16.5001 23.8188 15.9896 23.3177 15.0564 23.3114C14.4583 23.3083 13.857 23.3114 13.2182 23.3114C13.2182 22.9357 13.2182 22.6319 13.2182 22.3313C13.2182 22.0118 13.2276 21.6893 13.2151 21.3699C13.1837 20.54 12.7077 20.0546 11.881 20.0389C11.1388 20.0233 10.3935 20.0233 9.65131 20.0389C8.80578 20.0577 8.31725 20.565 8.30786 21.4137C8.30159 22.0338 8.30786 22.6507 8.30786 23.3146C7.62517 23.3146 7.00512 23.3083 6.38506 23.3146C5.56459 23.324 5.05727 23.8156 5.03848 24.633C5.02282 25.275 5.03222 25.9169 5.03535 26.5589C5.03535 27.8084 5.45185 28.2249 6.69822 28.228C7.22746 28.228 7.75983 28.228 8.25775 28.228C8.2922 28.3376 8.29846 28.3564 8.29846 28.3721C8.30159 28.964 8.30159 29.5527 8.31099 30.1446C8.32352 30.9776 8.83396 31.5005 9.66697 31.5162C10.359 31.5287 11.0511 31.5225 11.7432 31.5162C12.7109 31.5099 13.2057 31.0214 13.2182 30.0569C13.2244 29.4713 13.2182 28.8825 13.2182 28.2218H13.2213ZM36.727 28.1873C38.3304 28.1873 39.9338 28.1842 41.534 28.1873C41.891 28.1873 42.2073 28.1435 42.3764 27.7708C42.5455 27.3919 42.3607 27.1257 42.1071 26.8752C40.1749 24.943 38.2396 23.0108 36.3105 21.0786C35.9566 20.7248 35.5401 20.565 35.036 20.5713C33.871 20.5838 32.7092 20.5713 31.5442 20.5744C30.8396 20.5744 30.6423 20.7686 30.6423 21.4763C30.6392 23.2488 30.6361 25.0182 30.6423 26.7906C30.6455 27.7865 31.0588 28.1811 32.0703 28.1842C33.6236 28.1842 35.1737 28.1842 36.727 28.1842V28.1873ZM10.0991 44.9069C11.7683 44.8943 13.1587 43.5008 13.1681 41.8317C13.1775 40.1531 11.7526 38.7251 10.0709 38.7282C8.37988 38.7282 6.9832 40.1375 6.98946 41.8348C6.99572 43.5352 8.39554 44.9163 10.0991 44.9037V44.9069ZM42.4328 44.9069C44.1269 44.8975 45.5299 43.4757 45.5048 41.7909C45.4798 40.1187 44.0894 38.7345 42.4202 38.7282C40.7354 38.722 39.3231 40.1343 39.3262 41.8285C39.3262 43.5258 40.7323 44.9163 42.4296 44.9069H42.4328ZM33.5484 14.615H30.4419V15.9585H33.5484V14.615Z" fill="#13AB7B"/>
<path d="M33.2481 7.71615C33.2481 8.27358 33.2575 8.831 33.2481 9.38842C33.2324 10.0993 32.7251 10.6379 32.0706 10.6692C31.3785 10.7037 30.7866 10.2089 30.7616 9.47611C30.724 8.27671 30.724 7.07731 30.7616 5.87791C30.7835 5.1827 31.3942 4.66286 32.0299 4.68165C32.7 4.70357 33.2199 5.26412 33.2481 5.99065C33.2481 6.0251 33.2481 6.05954 33.2481 6.09086C33.2481 6.63262 33.2481 7.17126 33.2481 7.71302V7.71615Z" fill="#13AB7B"/>
<path d="M23.0796 8.46473C23.0827 7.81336 23.28 7.41565 23.731 7.19957C24.185 6.98036 24.683 6.96783 25.0588 7.31857C25.8949 8.10147 26.7091 8.90628 27.4857 9.74555C27.9148 10.209 27.8208 10.9669 27.3793 11.3959C26.9377 11.8249 26.1893 11.8844 25.7226 11.4491C24.9116 10.6913 24.1287 9.899 23.3677 9.09105C23.1861 8.90002 23.1328 8.58999 23.0796 8.46473V8.46473Z" fill="#13AB7B"/>
<path d="M40.147 7.06177C40.7827 7.08056 41.1742 7.28724 41.3809 7.74445C41.5907 8.2048 41.5907 8.69332 41.2368 9.06911C40.4633 9.88959 39.6679 10.6913 38.8443 11.4616C38.3996 11.8781 37.6637 11.8218 37.2253 11.4241C36.7743 11.0107 36.6553 10.2372 37.0749 9.77685C37.8578 8.92193 38.694 8.11085 39.5364 7.31229C39.7149 7.14319 40.0186 7.10874 40.1408 7.06177H40.147Z" fill="#13AB7B"/>
</g>
<defs>
<clipPath id="clip0_0_7807">
<rect width="52" height="52" fill="white"/>
</clipPath>
</defs>
</svg>
