<svg width="42" height="42" viewBox="0 0 42 42" fill="none" xmlns="http://www.w3.org/2000/svg">
<path d="M41.0032 0.0700024C41.0863 1.84625 41.2504 3.62578 41.1771 5.39438C41.164 5.71375 40.2026 6.15781 39.6327 6.2475C38.9644 6.3525 38.2436 6.13266 37.5535 6.05391C37.3949 7.28547 37.6246 8.80141 36.9705 9.5736C36.4083 10.2375 34.8377 10.0516 33.5941 10.2616C33.488 11.1606 33.7483 12.7105 33.0921 13.4323C32.4599 14.128 30.8816 13.9683 29.5057 14.2242C29.5451 14.6344 29.7638 15.3442 29.6315 15.9819C29.4936 16.6469 29.1043 17.7034 28.6755 17.7822C27.2285 18.048 25.7136 18.0031 24.2283 17.955C23.9779 17.9473 23.548 17.3305 23.5568 17.0045C23.5677 16.59 23.8466 15.9556 24.1769 15.82C25.0005 15.482 25.9182 15.3727 26.6969 15.1955C27.0327 14.2144 27.1257 12.9347 27.8126 12.2227C28.4568 11.5544 29.7266 11.4844 30.8072 11.1234C31.0861 7.99422 31.4296 7.64969 34.4833 7.48016C34.864 6.3875 34.9668 5.1111 35.6569 4.40125C36.3022 3.73625 37.5699 3.67172 38.399 3.39719C38.8266 2.29797 39.2608 1.18344 39.694 0.0689087C40.1315 0.0689087 40.569 0.0689087 41.0054 0.0689087L41.0032 0.0700024Z" fill="#13AB7B"/>
<path d="M0.996859 41.93C0.931234 41.1272 0.618421 40.2456 0.847015 39.538C1.60717 37.1809 2.56092 34.8852 3.47639 32.4724C5.11155 34.8447 6.6778 37.1164 8.29327 39.4581C6.3442 40.2631 4.32623 41.0966 2.30936 41.93H0.996859Z" fill="#13AB7B"/>
<path d="M23.7356 33.7411C22.2252 34.3186 20.9302 34.8874 19.5848 35.2855C19.1703 35.408 18.5108 35.2002 18.1444 34.9136C11.8214 29.9633 9.52453 19.9205 13.1066 12.2281C14.6061 13.7408 16.0498 15.178 17.4597 16.648C17.6139 16.8088 17.6259 17.1588 17.6161 17.4169C17.3766 23.6053 19.4503 28.9483 23.7356 33.7411Z" fill="#13AB7B"/>
<path d="M8.57622 18.8716C8.67356 25.783 11.059 31.6411 16.1898 36.5531C14.6334 37.1536 13.2597 37.7541 11.8345 38.185C11.4473 38.302 10.7834 38.0352 10.4509 37.7256C7.92981 35.3817 6.17106 32.5456 5.23809 29.2283C5.11559 28.7941 5.09043 28.2505 5.23918 27.836C6.31981 24.8369 7.45731 21.8575 8.57731 18.8716H8.57622Z" fill="#13AB7B"/>
<path d="M20.0303 19.1735C23.6626 22.7817 26.9854 26.0641 30.2721 29.3825C30.5336 29.6461 30.7304 30.4544 30.644 30.5091C29.4868 31.231 28.3067 31.9419 27.0532 32.4669C26.6912 32.6178 25.9321 32.3083 25.5986 31.9714C22.209 28.5458 20.4448 24.3819 20.0314 19.1746L20.0303 19.1735Z" fill="#13AB7B"/>
<path d="M25.3075 4.12232C25.2485 7.84982 23.8277 10.7154 21.4346 13.0922C21.055 13.4695 20.1527 13.324 19.4932 13.4203C19.5654 12.7531 19.3925 11.8792 19.7535 11.4548C21.3405 9.58779 22.5907 7.59935 22.7788 5.1056C22.8389 4.30498 22.5819 3.47154 22.7 2.68732C22.7886 2.10217 23.248 1.57388 23.5422 1.02045C24.0596 1.4481 24.7585 1.7817 25.0429 2.32967C25.3458 2.91373 25.2572 3.70013 25.3075 4.12123V4.12232Z" fill="#13AB7B"/>
<path d="M40.3726 19.8625C36.4482 19.1341 33.5902 20.4083 30.9937 22.6691C30.5791 23.03 29.6965 22.8572 29.0293 22.9316C29.1343 22.271 28.9976 21.3631 29.3815 20.9902C32.3816 18.0874 35.9046 16.5014 40.1735 17.4125C40.6909 17.523 41.3559 18.2394 41.4204 18.7436C41.4674 19.1122 40.6449 19.5935 40.3726 19.8625Z" fill="#13AB7B"/>
<path d="M19.462 6.63034C18.5772 7.10831 18.0522 7.62237 17.5863 7.57315C17.1914 7.53159 16.8644 6.83925 16.5078 6.43565C16.9552 6.06269 17.3697 5.46112 17.8597 5.39331C18.2195 5.343 18.6767 5.99269 19.462 6.63144V6.63034Z" fill="#13AB7B"/>
<path d="M38.6924 25.5238C37.7551 26.1439 37.2749 26.705 36.8079 26.6952C36.4273 26.6875 35.7798 26.0039 35.7677 25.6047C35.7568 25.2066 36.366 24.4891 36.7455 24.4596C37.2115 24.4235 37.7212 24.9561 38.6924 25.5238Z" fill="#13AB7B"/>
<path d="M31.6378 4.92078C30.7486 5.40094 30.2203 5.915 29.7478 5.86797C29.3639 5.82969 29.0478 5.11875 28.7021 4.70531C29.1484 4.34219 29.5673 3.74609 30.0486 3.69031C30.4171 3.64766 30.8656 4.28859 31.6378 4.92078Z" fill="#13AB7B"/>
<path d="M40.2868 13.4553C39.4697 14.0241 38.9524 14.6432 38.6155 14.5578C38.1376 14.4353 37.5655 13.8371 37.4747 13.358C37.4179 13.0572 38.166 12.2971 38.5532 12.2971C39.0191 12.2971 39.4862 12.8844 40.2868 13.4553Z" fill="#13AB7B"/>
</svg>
