<svg width="57" height="38" viewBox="0 0 57 38" fill="none" xmlns="http://www.w3.org/2000/svg">
<path d="M0 4.7111C0 2.10923 2.0969 0 4.68355 0H51.519C54.1057 0 56.2026 2.10923 56.2026 4.7111V32.9777C56.2026 35.5796 54.1057 37.6888 51.519 37.6888H4.68355C2.09689 37.6888 0 35.5796 0 32.9777V4.7111Z" fill="#D8E3F3"/>
<path d="M48.3706 11.8193H45.4263C44.5362 11.8193 43.8514 12.0948 43.4406 12.9902L37.8258 25.87H41.7972C41.7972 25.87 42.482 24.1481 42.6189 23.7348C43.0297 23.7348 46.9327 23.7348 47.4805 23.7348C47.6174 24.217 47.9598 25.8011 47.9598 25.8011H51.5204L48.3706 11.8193ZM43.7145 20.8421C44.0568 20.0155 45.2209 16.9161 45.2209 16.9161C45.2209 16.985 45.5632 16.0896 45.7002 15.6075L45.9741 16.8473C45.9741 16.8473 46.7273 20.2222 46.8642 20.9109H43.7145V20.8421Z" fill="#3362AB"/>
<path d="M38.0986 21.2549C38.0986 24.1477 35.4966 26.0762 31.4567 26.0762C29.7449 26.0762 28.1016 25.7318 27.2114 25.3186L27.7592 22.1503L28.2385 22.3569C29.471 22.9079 30.2927 23.1145 31.7991 23.1145C32.8947 23.1145 34.0587 22.7013 34.0587 21.737C34.0587 21.1172 33.5794 20.7039 32.073 20.0151C30.6351 19.3264 28.7178 18.2244 28.7178 16.227C28.7178 13.4719 31.3883 11.6123 35.1543 11.6123C36.5922 11.6123 37.8247 11.8878 38.5779 12.2322L38.0301 15.2627L37.7563 14.9872C37.0715 14.7117 36.1814 14.4362 34.8804 14.4362C33.4425 14.5051 32.7577 15.125 32.7577 15.676C32.7577 16.2959 33.5794 16.778 34.8804 17.3979C37.0715 18.431 38.0986 19.6019 38.0986 21.2549Z" fill="#3362AB"/>
<path d="M4.6842 11.9571L4.75268 11.6816H10.6413C11.463 11.6816 12.0793 11.9571 12.2847 12.8525L13.5857 19.0513C12.2847 15.7453 9.27189 13.0592 4.6842 11.9571Z" fill="#F9B50B"/>
<path d="M21.8704 11.8189L15.9133 25.8006H11.8734L8.44971 14.0918C10.9147 15.6759 12.9689 18.1554 13.7221 19.8773L14.133 21.3237L17.8305 11.75H21.8704V11.8189Z" fill="#3362AB"/>
<path d="M23.4462 11.75H27.2122L24.8157 25.8006H21.0497L23.4462 11.75Z" fill="#3362AB"/>
</svg>
