<svg width="30" height="48" viewBox="0 0 30 48" fill="none" xmlns="http://www.w3.org/2000/svg">
<g clip-path="url(#clip0_8_21)">
<path d="M25.6449 5.14339C25.9967 5.64899 26.3629 6.14574 26.6992 6.6624C28.1795 8.93595 28.9628 11.4352 29.0059 14.1446C29.0458 16.6693 29.0236 19.1962 29.0126 21.722C29.0126 21.8625 28.9053 22.0661 28.7869 22.1347C24.4456 24.656 20.0987 27.1663 15.7441 29.6623C15.6224 29.732 15.3724 29.6833 15.233 29.6036C13.0115 28.3358 10.7977 27.0546 8.58276 25.7746C5.84455 24.1925 3.10855 22.6038 0.364809 21.0305C0.102605 20.8801 0.00856542 20.7197 0.0107781 20.4187C0.0273733 18.2934 -0.0379012 16.1659 0.0395432 14.0428C0.196645 9.68494 1.98782 6.09595 5.33452 3.29911C10.0454 -0.638386 16.8793 -1.09752 22.1278 2.17063C22.7318 2.54679 23.3016 2.97937 23.888 3.38651C24.4732 3.97176 25.0596 4.55813 25.6449 5.14339ZM21.2361 7.76211C17.5254 4.06691 11.4925 4.07023 7.78951 7.76875C4.07661 11.4783 4.07992 17.5489 7.79836 21.2452C11.5135 24.9393 17.5409 24.9359 21.246 21.2396C24.9589 17.5367 24.9545 11.4651 21.2361 7.76211Z" fill="#13AB7B"/>
<path d="M24.5941 43.9154C20.8458 41.747 17.0986 39.5775 13.3492 37.4112C9.00454 34.9009 4.65659 32.395 0.317497 29.877C0.181416 29.7973 0.0331657 29.5949 0.0320593 29.4477C0.0121451 27.5858 0.0187832 25.7227 0.0198895 23.8596C0.0198895 23.8197 0.0364847 23.781 0.0575053 23.6914C9.26121 29.0052 18.4472 34.3101 27.7195 39.6637C27.2117 40.4758 26.7315 41.2558 26.2392 42.028C26.0567 42.3146 25.8465 42.5834 25.6495 42.8611C25.2977 43.2129 24.947 43.5636 24.5952 43.9154H24.5941Z" fill="#13AB7B"/>
<path d="M22.5274 45.5551C18.6176 48.259 12.744 49.0445 7.61829 46.2488C2.44058 43.4254 -0.296523 38.0032 0.0519767 32.5776C7.54416 36.9035 15.012 41.2149 22.5274 45.5551Z" fill="#13AB7B"/>
<path d="M29.0029 24.8662C29.0107 25.0399 29.0217 25.1605 29.0217 25.2811C29.0217 28.0116 29.0427 30.742 29.0107 33.4725C29.0007 34.3775 28.869 35.2836 28.7684 36.1864C28.7285 36.5382 28.6201 36.8834 28.5305 37.2861C25.0311 35.2659 21.5727 33.2689 18.0125 31.2133C21.7099 29.0781 25.3365 26.9838 29.0029 24.8662Z" fill="#13AB7B"/>
<path d="M18.257 20.4355C18.2016 17.9949 16.3341 16.6142 14.5761 16.5832C12.8137 16.5522 10.8411 17.9108 10.778 20.3968C9.03665 19.5659 7.05408 16.7613 7.54087 13.4888C8.02987 10.1963 10.788 7.65387 14.086 7.46579C17.4449 7.2744 20.4663 9.45058 21.3293 12.6866C22.2398 16.0986 20.432 19.2108 18.257 20.4355ZM12.4951 12.8283C12.0083 12.3304 11.2416 12.316 10.7515 12.794C10.2769 13.2575 10.268 14.0209 10.7327 14.5066C11.215 15.0111 11.9751 15.0376 12.4719 14.5674C12.9664 14.0995 12.9775 13.3195 12.4951 12.8272V12.8283ZM16.5432 12.8283C16.0609 13.3206 16.0697 14.0995 16.5642 14.5685C17.0477 15.0277 17.7967 15.0155 18.2747 14.5398C18.7659 14.0508 18.7714 13.2719 18.2868 12.7962C17.7989 12.3171 17.0311 12.3304 16.5432 12.8283Z" fill="#13AB7B"/>
<path d="M15.4136 21.1744C14.9445 21.6612 14.1634 21.6767 13.66 21.2087C13.1611 20.744 13.1411 19.9154 13.618 19.422C14.086 18.9385 14.9379 18.9352 15.4114 19.4142C15.8816 19.8911 15.8827 20.6876 15.4136 21.1733V21.1744Z" fill="#13AB7B"/>
</g>
<defs>
<clipPath id="clip0_8_21">
<rect width="29.0284" height="48" fill="white"/>
</clipPath>
</defs>
</svg>
