<svg width="50" height="48" viewBox="0 0 50 48" fill="none" xmlns="http://www.w3.org/2000/svg">
<path fill-rule="evenodd" clip-rule="evenodd" d="M28.6905 0.0631655C28.5339 0.110662 27.807 0.442671 27.0753 0.800775C24.5294 2.04686 23.7757 2.2132 20.2139 2.31467C17.9251 2.37981 17.5448 2.41285 16.9834 2.59505C15.6962 3.01285 14.5757 3.77045 13.7329 4.79286C13.4579 5.12655 13.1497 5.35165 12.5996 5.62105C8.22357 7.76347 5.19516 11.5153 4.12314 16.1227C3.98599 16.7123 3.84376 17.4801 3.80724 17.829C3.74077 18.463 3.74077 18.463 3.09439 18.7676C1.80866 19.3734 0.672229 20.6815 0.220259 22.0759C-0.0734195 22.982 -0.0734195 24.2674 0.220259 25.1735C0.802916 26.9712 2.30978 28.3759 4.19744 28.8812C4.77383 29.0355 4.77383 29.0355 5.18254 30.1552C7.50298 36.5136 12.2295 41.4018 17.7786 43.182C19.7461 43.8132 22.2884 44.1198 24.1605 43.9516C24.9241 43.8829 24.9241 43.8829 24.6981 43.6206C23.6126 42.3601 22.7513 41.3088 22.3154 40.7124C21.7959 40.0014 21.7959 40.0014 20.9804 39.8796C15.5719 39.072 10.5976 34.0886 8.62131 27.498C8.0178 25.4853 7.85784 24.3317 7.80616 21.6203C7.75564 18.9715 7.83934 17.9643 8.22984 16.5198C8.86007 14.1887 10.3406 12.0023 12.2761 10.5441C12.8652 10.1004 12.8652 10.1004 13.1614 10.663C13.5387 11.3797 14.4761 12.3424 15.2531 12.8113C16.9129 13.8127 18.8581 14.1634 20.7969 13.8108C24.0383 13.2212 27.0153 11.4893 28.8567 9.1222C29.2372 8.63315 29.4956 8.38262 29.5977 8.40384C29.6839 8.42167 30.1998 8.64076 30.7442 8.89063C34.4728 10.6023 36.8979 13.4305 37.7439 17.054C37.8463 17.4928 37.9768 18.4628 38.0337 19.2095C38.0907 19.9562 38.1509 20.5801 38.1674 20.5959C38.1839 20.6117 38.6113 20.5179 39.1172 20.3873C39.6231 20.2567 40.5328 20.0989 41.1384 20.0365C42.0115 19.9466 42.2396 19.8933 42.2394 19.7792C42.2392 19.7001 42.1926 19.1496 42.1359 18.5559C41.5287 12.1985 37.7658 7.31732 31.6143 4.90728C30.9367 4.64182 30.9608 4.74451 31.167 2.99783C31.3054 1.82487 31.2684 1.51417 30.9209 0.934817C30.5109 0.251088 29.4443 -0.165777 28.6905 0.0631655ZM14.9016 18.0893C13.9948 18.3077 13.1486 18.9924 12.759 19.8231C12.4524 20.4768 12.4524 21.5158 12.7589 22.1698C13.0467 22.7838 13.7567 23.4676 14.3802 23.7312C15.1342 24.0501 16.171 24.0339 16.8999 23.6919C17.5466 23.3885 18.1891 22.7573 18.4802 22.1393C18.7676 21.5291 18.7667 20.462 18.4783 19.8496C18.1885 19.234 17.4646 18.5221 16.8857 18.2833C16.3221 18.0509 15.4255 17.9632 14.9016 18.0893ZM29.6605 24.0962C26.5597 24.5468 24.0125 26.7125 23.2044 29.5853C22.1684 33.2684 24.3777 37.682 29.9002 42.9615C32.3964 45.3478 35.4086 47.7635 36.1175 47.9475C36.8515 48.1379 37.3207 47.8796 39.6456 46.0054C44.3847 42.1846 47.8241 38.2257 49.2216 34.9826C49.809 33.6197 50.0034 32.7407 50 31.4626C49.9963 30.0774 49.7852 29.2444 49.125 28.0107C48.7452 27.3011 48.4927 26.9829 47.7266 26.2483C46.9605 25.5137 46.6286 25.2716 45.8886 24.9074C44.5812 24.2641 43.7363 24.0702 42.2397 24.0702C41.3059 24.0702 40.8358 24.1167 40.255 24.2666C39.2241 24.5326 37.8889 25.2111 37.1717 25.8335C36.8463 26.1158 36.5396 26.3468 36.4902 26.3468C36.4407 26.3468 36.2935 26.2366 36.1629 26.102C35.8366 25.7653 34.8557 25.1055 34.2426 24.8104C32.9841 24.2044 31.0211 23.8985 29.6605 24.0962Z" fill="#13AB7B"/>
</svg>
