<svg width="56" height="48" viewBox="0 0 56 48" fill="none" xmlns="http://www.w3.org/2000/svg">
<path fill-rule="evenodd" clip-rule="evenodd" d="M13.1667 0.0650112C6.8415 1.06507 1.87808 5.9533 0.40493 12.6333C-0.477799 16.6366 0.0742754 20.4218 2.14395 24.556C5.42931 31.1183 12.8737 38.4942 23.0593 45.279C26.7629 47.746 27.2175 48 27.9291 48C28.4961 48 28.6207 47.9443 30.0945 47.0321C39.6059 41.1451 48.1423 33.4398 52.2359 27.0464C52.6363 26.4211 53.3264 25.1749 53.7695 24.2771C55.812 20.139 56.3219 16.5359 55.4395 12.4762C54.2383 6.94966 50.2521 2.36505 45.1803 0.676584C43.6127 0.154788 42.6421 0.0100566 40.7089 0.0100566C38.7464 0.0100566 37.9658 0.121924 36.3988 0.627614C34.1705 1.3467 32.1817 2.57583 30.4417 4.30935C29.5815 5.16609 28.2476 6.84052 27.9914 7.38484C27.9415 7.49072 27.9153 7.49072 27.8653 7.38484C27.6323 6.88981 26.3021 5.19852 25.5252 4.40968C23.5035 2.35688 21.1592 1.01349 18.4027 0.328031C17.4906 0.10114 16.9475 0.0406351 15.5302 0.00798888C14.5689 -0.0142106 13.5053 0.0114714 13.1667 0.0650112Z" fill="#FF7272"/>
</svg>
