<svg width="52" height="52" viewBox="0 0 52 52" fill="none" xmlns="http://www.w3.org/2000/svg">
<g clip-path="url(#clip0_0_399)">
<path d="M52.0002 39.3296C51.7466 40.4194 51.3019 41.3996 50.3906 42.1136C49.7925 42.5802 49.138 42.909 48.377 42.9873C48.02 43.0218 47.8321 43.147 47.7131 43.5228C46.9928 45.8339 44.8133 47.4185 42.4176 47.4217C40.0282 47.4217 37.8517 45.8308 37.1064 43.5291C37.0594 43.3882 37.0093 43.2472 36.9561 43.0969H15.5454C14.6811 45.8026 12.8617 47.4185 9.98688 47.3841C7.20603 47.3496 5.44294 45.7557 4.59742 43.0813C3.6141 43.0813 2.62138 43.0813 1.62554 43.0813C0.582721 43.0813 0.100457 42.5865 0.100457 41.5186C0.100457 34.341 0.122378 27.1603 0.0879302 19.9827C0.0785355 17.6935 1.74141 15.968 4.08697 15.9805C11.7875 16.0212 19.4912 15.9962 27.1918 15.9962C27.4079 15.9962 27.6208 15.9962 27.9027 15.9962C27.9027 15.2195 27.9027 14.4993 27.9027 13.779C27.9027 12.5076 28.338 12.066 29.5875 12.066C31.2597 12.066 32.932 12.066 34.6043 12.066C35.5688 12.066 36.0761 12.5702 36.0824 13.5222C36.0855 14.2832 36.0918 15.041 36.0793 15.802C36.0761 16.0463 36.1168 16.1997 36.3862 16.2843C37.2254 16.5442 37.9081 17.0515 38.5282 17.6716C42.3957 21.5454 46.2694 25.4066 50.1463 29.271C51.0827 30.2042 51.7027 31.2971 51.9094 32.6124C51.922 32.6938 51.9658 32.769 51.9971 32.8441V39.3328L52.0002 39.3296ZM13.2218 28.2219C13.9358 28.2219 14.559 28.2376 15.1822 28.2188C15.9964 28.1937 16.4974 27.6864 16.51 26.8722C16.5225 26.1644 16.5194 25.4536 16.51 24.7427C16.5006 23.8189 15.9901 23.3178 15.0569 23.3116C14.4588 23.3084 13.8575 23.3116 13.2187 23.3116C13.2187 22.9358 13.2187 22.632 13.2187 22.3314C13.2187 22.012 13.2281 21.6894 13.2155 21.37C13.1842 20.5401 12.7082 20.0547 11.8815 20.0391C11.1393 20.0234 10.394 20.0234 9.6518 20.0391C8.80627 20.0579 8.31774 20.5652 8.30835 21.4138C8.30208 22.0339 8.30835 22.6508 8.30835 23.3147C7.62566 23.3147 7.00561 23.3084 6.38555 23.3147C5.56508 23.3241 5.05776 23.8158 5.03897 24.6331C5.02331 25.2751 5.03271 25.917 5.03584 26.559C5.03584 27.8085 5.45234 28.225 6.69871 28.2282C7.22795 28.2282 7.76032 28.2282 8.25824 28.2282C8.29269 28.3378 8.29895 28.3566 8.29895 28.3722C8.30208 28.9641 8.30208 29.5528 8.31148 30.1447C8.324 30.9777 8.83445 31.5007 9.66745 31.5163C10.3595 31.5289 11.0516 31.5226 11.7437 31.5163C12.7114 31.5101 13.2061 31.0215 13.2187 30.057C13.2249 29.4714 13.2187 28.8827 13.2187 28.2219H13.2218ZM36.7275 28.1875C38.3309 28.1875 39.9342 28.1843 41.5345 28.1875C41.8915 28.1875 42.2078 28.1436 42.3769 27.7709C42.546 27.392 42.3612 27.1258 42.1076 26.8753C40.1754 24.9431 38.2401 23.0109 36.311 21.0787C35.9571 20.7249 35.5406 20.5652 35.0364 20.5714C33.8715 20.584 32.7097 20.5714 31.5447 20.5746C30.8401 20.5746 30.6428 20.7687 30.6428 21.4765C30.6397 23.2489 30.6366 25.0183 30.6428 26.7908C30.646 27.7866 31.0593 28.1812 32.0708 28.1843C33.6241 28.1843 35.1742 28.1843 36.7275 28.1843V28.1875ZM10.0996 44.907C11.7687 44.8945 13.1592 43.5009 13.1686 41.8318C13.178 40.1532 11.7531 38.7252 10.0714 38.7284C8.38037 38.7284 6.98368 40.1376 6.98995 41.8349C6.99621 43.5354 8.39603 44.9164 10.0996 44.9039V44.907ZM42.4332 44.907C44.1274 44.8976 45.5304 43.4759 45.5053 41.7911C45.4803 40.1188 44.0899 38.7346 42.4207 38.7284C40.7359 38.7221 39.3236 40.1345 39.3267 41.8286C39.3267 43.526 40.7328 44.9164 42.4301 44.907H42.4332ZM33.5489 14.6152H30.4424V15.9586H33.5489V14.6152Z" fill="#FF7272"/>
<path d="M33.2481 7.71628C33.2481 8.2737 33.2575 8.83112 33.2481 9.38854C33.2324 10.0994 32.7251 10.638 32.0706 10.6694C31.3785 10.7038 30.7866 10.209 30.7616 9.47623C30.724 8.27683 30.724 7.07743 30.7616 5.87803C30.7835 5.18282 31.3942 4.66298 32.0299 4.68177C32.7 4.70369 33.2199 5.26424 33.2481 5.99077C33.2481 6.02522 33.2481 6.05967 33.2481 6.09098C33.2481 6.63275 33.2481 7.17138 33.2481 7.71314V7.71628Z" fill="#FF7272"/>
<path d="M23.0801 8.46473C23.0832 7.81336 23.2805 7.41565 23.7314 7.19957C24.1855 6.98036 24.6835 6.96783 25.0592 7.31857C25.8954 8.10147 26.7096 8.90628 27.4862 9.74555C27.9152 10.209 27.8213 10.9669 27.3797 11.3959C26.9382 11.8249 26.1897 11.8844 25.7231 11.4491C24.9121 10.6913 24.1292 9.899 23.3682 9.09105C23.1866 8.90002 23.1333 8.58999 23.0801 8.46473Z" fill="#FF7272"/>
<path d="M40.1465 7.06177C40.7823 7.08056 41.1737 7.28724 41.3804 7.74445C41.5902 8.2048 41.5902 8.69332 41.2363 9.06911C40.4628 9.88959 39.6674 10.6913 38.8438 11.4616C38.3991 11.8781 37.6632 11.8218 37.2248 11.4241C36.7738 11.0107 36.6548 10.2372 37.0745 9.77685C37.8574 8.92193 38.6935 8.11085 39.5359 7.31229C39.7144 7.14319 40.0181 7.10874 40.1403 7.06177H40.1465Z" fill="#FF7272"/>
</g>
<defs>
<clipPath id="clip0_0_399">
<rect width="52" height="52" fill="white"/>
</clipPath>
</defs>
</svg>
