<svg width="37" height="48" viewBox="0 0 37 48" fill="none" xmlns="http://www.w3.org/2000/svg">
<g clip-path="url(#clip0_8_32)">
<path d="M27.4769 12.5928C33.6682 15.8659 37.0145 20.8798 36.453 27.8917C35.8615 35.2886 31.4917 39.7598 24.4666 41.8311C24.6281 42.4245 24.8479 43.0442 24.9568 43.6808C25.1164 44.6009 25.2385 45.5304 25.2967 46.4619C25.3568 47.3914 24.7352 47.9961 23.8056 47.9961C18.2622 47.9998 12.7169 47.9961 7.17343 47.9998C6.6157 47.9998 6.15187 47.8158 5.85329 47.3445C4.41861 45.0779 2.89378 42.862 1.59806 40.5184C0.133328 37.8669 -0.259145 34.9618 0.155862 31.9479C0.57838 28.8832 1.88162 26.2486 3.92661 23.9538C5.50025 22.1868 6.29459 20.1267 6.18755 17.7456C6.13685 16.6076 5.8439 15.526 5.29181 14.5326C4.37729 12.8876 3.78201 11.1543 3.70126 9.25768C3.64305 7.86807 3.85713 6.52352 4.28903 5.20902C4.73221 3.86259 5.17914 2.51804 5.62983 1.17349C5.91526 0.326579 6.36783 0.00546473 7.2692 0.00546473C9.95454 0.00546473 12.6418 -0.011436 15.3271 0.0242433C15.7139 0.0298769 16.1984 0.183861 16.4632 0.444884C18.5683 2.50865 21.0978 3.78372 23.892 4.61374C25.7304 5.16019 27.075 6.28879 27.7604 8.12158C28.3332 9.65391 28.2149 11.1487 27.4769 12.5946V12.5928ZM22.3766 21.1671C22.3484 21.1408 22.232 21.0394 22.1193 20.9323C20.9043 19.8 19.4715 19.447 17.8791 19.8376C15.1581 20.5061 13.5431 23.4337 14.3037 26.2617C14.7018 27.7433 15.5994 28.9264 16.6942 29.9386C18.2284 31.3582 19.8246 32.7103 21.3982 34.0868C22.1569 34.7496 22.8423 34.7421 23.6066 34.0868C24.3897 33.4164 25.1746 32.7497 25.9577 32.0831C27.2891 30.9507 28.6299 29.8278 29.6608 28.3931C30.6861 26.9659 31.0974 25.4017 30.7425 23.6646C30.1622 20.8197 27.3003 19.0244 24.6357 19.9127C23.862 20.1699 23.1822 20.7089 22.3766 21.1652V21.1671Z" fill="#13AB7B"/>
<path d="M22.5249 31.4464C21.0226 30.0718 19.6049 28.8249 18.2453 27.5161C17.5336 26.8307 16.9665 26.0138 16.9458 24.9528C16.927 23.997 17.2387 23.1914 18.1138 22.7144C18.9157 22.2768 19.8771 22.4834 20.4574 23.2552C20.7879 23.6965 21.002 24.2261 21.2555 24.7237C21.5447 25.2927 22.0235 25.518 22.6338 25.503C23.1784 25.4899 23.5258 25.1857 23.7455 24.7124C23.8638 24.4589 23.9596 24.1941 24.0836 23.9425C24.3878 23.3228 24.7934 22.7951 25.4882 22.5886C26.6938 22.2299 27.8599 23.1012 28.0346 24.4495C28.181 25.5781 27.6966 26.4964 26.9661 27.2363C25.5539 28.6635 24.0573 30.0061 22.5268 31.4464H22.5249Z" fill="#13AB7B"/>
</g>
<defs>
<clipPath id="clip0_8_32">
<rect width="36.5131" height="48" fill="white"/>
</clipPath>
</defs>
</svg>
