<svg width="48" height="48" viewBox="0 0 48 48" fill="none" xmlns="http://www.w3.org/2000/svg">
<path d="M40.1387 48H25.9779C25.8429 47.973 25.709 47.9272 25.5728 47.9202C21.3516 47.7088 17.249 46.8892 13.2414 45.5588C12.8986 45.4449 12.8363 45.2759 12.8363 44.9588C12.8434 36.6937 12.8434 28.4297 12.834 20.1645C12.834 19.8463 12.9408 19.6561 13.1851 19.4682C15.0426 18.0345 16.8298 16.521 18.3973 14.7667C19.7077 13.3013 20.8103 11.7162 21.4831 9.84098C22.2522 7.69807 23.0859 5.57865 23.9207 3.4604C24.1532 2.86978 24.4245 2.27211 24.7943 1.76251C25.7372 0.465023 27.0312 -0.17961 28.6504 0.0434872C30.3471 0.277152 31.5648 1.17306 32.0051 2.87565C32.2423 3.79035 32.3914 4.74497 32.4337 5.68785C32.5687 8.65621 32.0638 11.5694 31.5495 14.4767C31.4086 15.2705 31.2372 16.0572 31.0669 16.912C31.2959 16.912 31.4638 16.912 31.6317 16.912C33.3354 16.912 35.038 16.9085 36.7418 16.912C38.4444 16.9167 40.1517 16.8591 41.8495 16.9543C45.2007 17.1421 47.346 20.6107 46.0849 23.7141C45.951 24.0429 45.7772 24.3552 45.6152 24.6887C47.1405 25.6997 47.9859 27.1075 47.9871 28.9252C47.9882 30.7581 47.1217 32.1718 45.6058 33.1746C47.2097 35.7097 46.4712 38.9469 43.7013 40.4617C43.76 40.5838 43.8163 40.7082 43.8786 40.8304C44.9201 42.8805 44.3811 45.3792 42.6057 46.8493C41.8777 47.4528 41.0288 47.7628 40.1376 47.9977L40.1387 48Z" fill="#13AB7B"/>
<path d="M0.0011742 22.2158C0.33582 21.3645 0.958144 21.0603 1.86697 21.0744C4.38093 21.112 6.89488 21.0874 9.40883 21.0874C9.58027 21.0874 9.75052 21.0874 9.96188 21.0874V44.7909H9.40766C6.8937 44.7909 4.37858 44.7732 1.86462 44.8002C0.942879 44.8096 0.288852 44.5102 0 43.5932V22.2158H0.0011742Z" fill="#13AB7B"/>
</svg>
