<svg width="48" height="48" viewBox="0 0 48 48" fill="none" xmlns="http://www.w3.org/2000/svg">
<path d="M25.5793 48C24.5174 48 23.4555 48 22.3936 48C21.8233 47.9296 21.2519 47.8709 20.684 47.7864C16.0515 47.1059 11.879 45.3364 8.39403 42.2023C1.16955 35.703 -1.43534 27.6267 0.749486 18.1575C2.08479 12.3692 5.37846 7.76961 10.2444 4.37034C15.9013 0.417233 22.1789 -0.833587 28.927 0.53457C33.9654 1.55658 38.2248 4.05001 41.6956 7.84588C44.8098 11.2534 46.7928 15.237 47.5954 19.7909C47.7491 20.6615 47.8488 21.5415 47.9732 22.4169C47.9732 23.4788 47.9732 24.5407 47.9732 25.6026C47.9439 25.7375 47.904 25.8701 47.8852 26.0062C47.7772 26.8241 47.7233 27.6513 47.5637 28.4586C46.388 34.4017 43.4099 39.2548 38.6413 42.9862C35.5448 45.4092 32.0446 46.9651 28.1607 47.6257C27.3042 47.7735 26.4394 47.8768 25.5793 48ZM4.38695 23.9634C4.34002 34.7538 13.1263 43.5775 23.9518 43.6127C34.7293 43.6479 43.5179 34.9051 43.5859 24.0795C43.654 13.2962 34.8807 4.46421 24.0445 4.40671C13.2589 4.35039 4.43389 13.1296 4.38695 23.9634Z" fill="#13AB7B"/>
<path d="M13.0957 27.6747C13.0957 25.2247 13.0957 22.8263 13.0957 20.3727C15.5011 20.3727 17.8936 20.3727 20.3249 20.3727C20.3249 17.9345 20.3249 15.5513 20.3249 13.126C22.7714 13.126 25.1791 13.126 27.6245 13.126C27.6245 15.5255 27.6245 17.9087 27.6245 20.3458C30.0557 20.3458 32.4506 20.3458 34.8771 20.3458C34.8771 22.7969 34.8771 25.1942 34.8771 27.6477C32.4717 27.6477 30.0792 27.6477 27.6479 27.6477C27.6479 30.086 27.6479 32.4691 27.6479 34.8945C25.2014 34.8945 22.7937 34.8945 20.3483 34.8945C20.3483 32.4949 20.3483 30.1118 20.3483 27.6747C17.9171 27.6747 15.5211 27.6747 13.0957 27.6747Z" fill="#13AB7B"/>
</svg>
