<svg width="48" height="48" viewBox="0 0 48 48" fill="none" xmlns="http://www.w3.org/2000/svg">
<g clip-path="url(#clip0_8_22)">
<path d="M28.0302 0C28.297 0.0713876 28.565 0.14027 28.8305 0.215415C31.3203 0.919271 33.5083 3.31389 33.2829 6.68914C33.1088 9.29165 30.9233 11.7 28.2294 12.1672C24.8867 12.7458 21.6893 10.4802 21.1157 7.12498C20.5521 3.82738 22.7914 0.686323 26.1328 0.0864165C26.2055 0.07264 26.2731 0.0288055 26.3445 0C26.9068 0 27.4692 0 28.0315 0L28.0302 0Z" fill="#13AB7B"/>
<path d="M0 40.9677C0.0688827 40.716 0.136513 40.4655 0.206648 40.2138C0.950582 37.5323 3.58566 35.6011 6.30715 35.7427C9.28289 35.8967 11.6925 38.002 12.1684 40.8625C12.7095 44.1188 10.4977 47.3162 7.30407 47.8936C3.87998 48.5135 0.7264 46.3556 0.0889213 42.9603C0.0751448 42.8864 0.0313103 42.8188 0.00125241 42.7487C0.00125241 42.155 0.00125241 41.5614 0.00125241 40.9677H0Z" fill="#13AB7B"/>
<path d="M35.7752 19.4037H32.9848C32.9848 19.6091 32.9848 19.7919 32.9848 19.9735C32.9848 22.6762 32.9798 25.3777 32.9923 28.0804C32.9936 28.3822 32.9072 28.5551 32.6429 28.7141C30.9334 29.7449 29.2326 30.7894 27.5368 31.8414C27.2826 31.9992 27.101 32.0193 26.8305 31.8502C25.1384 30.7906 23.4352 29.7486 21.7244 28.7191C21.4614 28.5601 21.3687 28.3948 21.3712 28.0904C21.3837 25.3727 21.3787 22.655 21.3787 19.9372C21.3787 19.7694 21.3787 19.6003 21.3787 19.4074H18.5883V23.4102H15.0816C15.0665 23.3939 15.029 23.3701 15.029 23.3475C15.0452 21.9749 14.9714 20.5935 15.1054 19.2321C15.2769 17.4913 16.2689 16.2213 17.8444 15.4761C19.2095 14.8311 20.6122 14.2663 22.0074 13.6864C22.1489 13.6276 22.3781 13.6463 22.5134 13.724C25.6281 15.4949 28.7329 15.4924 31.8476 13.7215C31.9917 13.6401 32.2409 13.6388 32.3987 13.704C33.6799 14.2325 34.9574 14.7698 36.2236 15.3333C38.0959 16.1662 39.1805 17.6015 39.302 19.6617C39.3746 20.9028 39.3158 22.1515 39.3158 23.4177H35.7764V19.4062L35.7752 19.4037Z" fill="#13AB7B"/>
<path d="M25.206 41.6655H19.9923V44.4446H36.2273V47.999H35.7213C29.7536 47.999 23.7871 48.0015 17.8193 47.9977C16.215 47.9977 15.1554 47.0847 14.3188 45.8373C14.2512 45.7371 14.2662 45.533 14.3188 45.409C15.054 43.6418 15.213 41.8271 14.8348 39.9535C14.8023 39.7907 14.8799 39.5477 14.9951 39.4237C15.8092 38.552 16.8036 38.1224 18.0197 38.0673C19.0667 38.021 19.9434 38.2765 20.8138 38.8589C22.2466 39.8182 23.7495 40.6749 25.2223 41.5741C25.2173 41.6042 25.2123 41.6342 25.2086 41.6655H25.206Z" fill="#13AB7B"/>
<path d="M15.0114 26.2744H18.5783C18.5783 26.7992 18.5783 27.3227 18.5783 27.8462C18.5783 28.4398 18.5971 29.0335 18.5708 29.6259C18.5558 29.949 18.6735 30.1231 18.9453 30.2884C21.9686 32.1269 24.9869 33.9755 28.0002 35.8291C29.1224 36.5192 29.2764 37.9432 28.3334 38.7572C27.7046 39.2995 26.8968 39.3321 26.079 38.8311C23.7908 37.4334 21.5052 36.0295 19.217 34.6293C18.6184 34.2623 18.0122 33.9091 17.4211 33.5309C15.8581 32.529 15.0578 31.0862 15.0152 29.2364C14.9926 28.257 15.0114 27.2776 15.0114 26.2744Z" fill="#13AB7B"/>
<path d="M29.8488 33.6987C30.2971 33.4195 30.7029 33.1627 31.1112 32.9122C32.5477 32.0318 33.9817 31.1463 35.4257 30.2797C35.6725 30.1306 35.7601 29.964 35.7576 29.681C35.7426 28.5588 35.7514 27.4367 35.7514 26.2832H39.3446C39.2769 27.7285 39.5149 29.1838 39.1392 30.609C38.8336 31.7663 38.1786 32.7206 37.1666 33.3656C35.4182 34.4803 33.6373 35.5461 31.8702 36.6306C31.8313 36.6544 31.7825 36.662 31.7036 36.6883C31.4606 35.4797 30.8657 34.4828 29.85 33.7L29.8488 33.6987Z" fill="#13AB7B"/>
<path d="M47.9637 47.9813H45.1207C45.2084 47.4202 45.3549 46.8716 45.3674 46.3218C45.4125 44.4069 44.3242 42.7499 42.5608 42.0173C42.2802 41.9008 42.1888 41.7693 42.1926 41.4775C42.2076 40.3716 42.1988 39.2657 42.1988 38.1235H47.9637V47.9813Z" fill="#13AB7B"/>
<path d="M29.0698 41.6162C30.996 40.4377 32.8508 39.3005 34.7094 38.1708C34.7971 38.1182 34.9148 38.0919 35.0187 38.0919C36.4227 38.0882 37.8279 38.0919 39.2318 38.0944C39.2757 38.0944 39.3183 38.1182 39.3934 38.142V41.6175H29.0698V41.6162Z" fill="#13AB7B"/>
<path d="M39.0465 47.9988V44.4683C39.7516 44.4683 40.4404 44.3981 41.1092 44.4845C42.0723 44.6085 42.661 45.4627 42.5695 46.4421C42.4856 47.34 41.7379 47.9913 40.7786 47.9976C40.2188 48.0013 39.6577 47.9976 39.0478 47.9976L39.0465 47.9988Z" fill="#13AB7B"/>
</g>
<defs>
<clipPath id="clip0_8_22">
<rect width="47.9637" height="48" fill="white"/>
</clipPath>
</defs>
</svg>
